<?xml version="1.0" encoding="UTF-8" standalone="no"?>
<!-- Created with Inkscape (http://www.inkscape.org/) -->
<svg xmlns:dc="http://purl.org/dc/elements/1.1/" xmlns:cc="http://creativecommons.org/ns#" xmlns:rdf="http://www.w3.org/1999/02/22-rdf-syntax-ns#"  xmlns="http://www.w3.org/2000/svg" xmlns:sodipodi="http://sodipodi.sourceforge.net/DTD/sodipodi-0.dtd" xmlns:inkscape="http://www.inkscape.org/namespaces/inkscape" version="1.1" id="svg4031" xml:space="preserve" width="1600" height="1600" viewBox="0 0 1600 1600" sodipodi:docname="No result.svg" inkscape:version="0.92.3 (2405546, 2018-03-11)">
    <metadata id="metadata4037">
        <rdf:RDF>
            <cc:Work rdf:about="">
                <dc:format>image/svg+xml</dc:format>
                <dc:type rdf:resource="http://purl.org/dc/dcmitype/StillImage" />
                <dc:title></dc:title>
            </cc:Work>
        </rdf:RDF>
    </metadata>
    <defs id="defs4035">
        <clipPath clipPathUnits="userSpaceOnUse" id="clipPath4047">
            <path d="M 0,1200 H 1200 V 0 H 0 Z" id="path4045" inkscape:connector-curvature="0" />
        </clipPath>
        <clipPath clipPathUnits="userSpaceOnUse" id="clipPath4055">
            <path d="M 265.276,673 H 555.314 V 489 H 265.276 Z" id="path4053" inkscape:connector-curvature="0" />
        </clipPath>
        <clipPath clipPathUnits="userSpaceOnUse" id="clipPath4071">
            <path d="M 174.563,829.408 H 345.077 V 608.056 H 174.563 Z" id="path4069" inkscape:connector-curvature="0" />
        </clipPath>
        <clipPath clipPathUnits="userSpaceOnUse" id="clipPath4091">
            <path d="M 795.102,321.74 H 999.17 V 278.515 H 795.102 Z" id="path4089" inkscape:connector-curvature="0" />
        </clipPath>
        <clipPath clipPathUnits="userSpaceOnUse" id="clipPath4107">
            <path d="M 730.003,358.153 H 805.86 V 306.706 H 730.003 Z" id="path4105" inkscape:connector-curvature="0" />
        </clipPath>
        <clipPath clipPathUnits="userSpaceOnUse" id="clipPath4259">
            <path d="M 497.964,708.964 H 775.665 V 456.719 H 497.964 Z" id="path4257" inkscape:connector-curvature="0" />
        </clipPath>
        <clipPath clipPathUnits="userSpaceOnUse" id="clipPath4323">
            <path d="m 852.764,721.606 h 70.144 v -43.865 h -70.144 z" id="path4321" inkscape:connector-curvature="0" />
        </clipPath>
        <style>
        .torch-pan{
        animation: animationFrames linear 4s;
        animation-iteration-count: infinite;
        transform-origin: 0 0 ;
            transform-style: preserve-3D;

        }

            .close-eyes{
        animation: animationEyes linear 4s;
        animation-iteration-count: infinite;
        transform-origin: 0 0 ;
            transform-style: preserve-3D;

        }

        @keyframes animationFrames{
        0% {
        transform:  rotate(-20deg) ;
        }
        50% {
        transform:  rotate(20deg) ;
        }
        100% {
        transform:  rotate(-20deg) ;
        }
        }


        @keyframes animationEyes{
        0% {
            transform:  scale(0.5,0.5) ;
        }
        50% {
            transform:  skewX(0) ;
        }
        100% {
            transform:  skewX(30deg) ;
            transform:  scale(0.5,0.5) ;
        }
        }

    </style>
    </defs>
    <sodipodi:namedview pagecolor="#ffffff" bordercolor="#666666" borderopacity="1" objecttolerance="10" gridtolerance="10" guidetolerance="10" inkscape:pageopacity="0" inkscape:pageshadow="2" inkscape:window-width="1366" inkscape:window-height="705" id="namedview4033" showgrid="false" inkscape:zoom="0.96" inkscape:cx="1005.4932" inkscape:cy="821.12414" inkscape:window-x="-8" inkscape:window-y="-8" inkscape:window-maximized="1" inkscape:current-layer="g4043" />
    <g id="g4039" inkscape:groupmode="layer" inkscape:label="No result" transform="matrix(1.3333333,0,0,-1.3333333,0,1600)">
        <g id="g4041">
            <g id="g4043" clip-path="url(#clipPath4047)">
                <g id="g4049">
                    <g id="g4051" />
                    <g id="g4063">
                        <g clip-path="url(#clipPath4055)" id="g4061" style="opacity:0.60000598">
                            <g transform="translate(420.7183,489)" id="g4059">
                                <path d="m 0,0 h 94.826 c 32.415,0 51.167,36.747 32.146,62.995 L 46.762,173.678 C 42.063,180.162 34.542,184 26.535,184 h -156.961 c -19.01,0 -31.053,-20.39 -21.877,-37.039 l 46.585,-84.518 C -84.486,23.923 -43.984,0 0,0" style="fill:#dddddd;fill-opacity:1;fill-rule:nonzero;stroke:none" id="path4057" inkscape:connector-curvature="0" />
                            </g>
                        </g>
                    </g>
                </g>
                <g id="g4065">
                    <g id="g4067" />
                    <g id="g4083">
                        <g clip-path="url(#clipPath4071)" id="g4081" style="opacity:0.60000598">
                            <g transform="translate(334.8062,754.3604)" id="g4075">
                                <path d="m 0,0 -122.496,-35.129 c -7.937,-2.277 -16.578,1.852 -19.298,9.221 l -17.624,47.735 c -2.721,7.37 1.508,15.189 9.445,17.465 l 122.496,35.13 c 7.937,2.276 16.578,-1.853 19.298,-9.222 L 9.445,17.465 C 12.166,10.096 7.937,2.276 0,0" style="fill:#dddddd;fill-opacity:1;fill-rule:nonzero;stroke:none" id="path4073" inkscape:connector-curvature="0" />
                            </g>
                            <g transform="translate(240.0459,609.1519)" id="g4079">
                                <path d="m 0,0 c -13.464,36.749 -26.927,73.498 -40.391,110.247 -1.884,5.143 -3.768,10.286 -5.653,15.43 -0.292,0.799 -3.157,-0.068 -2.897,-0.777 C -35.478,88.152 -22.015,51.403 -8.551,14.654 -6.667,9.511 -4.782,4.367 -2.898,-0.776 -2.605,-1.576 0.259,-0.708 0,0" style="fill:#dddddd;fill-opacity:1;fill-rule:nonzero;stroke:none" id="path4077" inkscape:connector-curvature="0" />
                            </g>
                        </g>
                    </g>
                </g>
                <g id="g4085">
                    <g id="g4087" />
                    <g id="g4099">
                        <g clip-path="url(#clipPath4091)" id="g4097" style="opacity:0.60000598">
                            <g transform="translate(883.5352,316.5977)" id="g4095">
                                <path d="m 0,0 c 30.829,-0.474 76.276,5.395 105.187,-6.451 5.697,-2.334 10.556,-7.739 10.446,-13.717 -0.006,-0.34 -0.029,-0.683 -0.068,-1.025 -0.621,-5.434 -5.28,-9.763 -10.479,-11.707 -23.165,-8.667 -54.515,-4.113 -78.68,-2.925 -9.374,0.461 -18.048,1.66 -27.635,1.593 -20.314,-0.143 -40.108,-2.761 -58.595,6.911 -6.133,3.209 -12.327,6.459 -17.568,10.982 -3.12,2.694 -19.078,23.079 -5.907,21.382 4.356,-0.562 8.28,-3.658 12.549,-4.94 5.311,-1.595 10.703,-3.15 16.278,-3.381 C -36.438,-4.025 -18.223,0.279 0,0" style="fill:#dddddd;fill-opacity:1;fill-rule:nonzero;stroke:none" id="path4093" inkscape:connector-curvature="0" />
                            </g>
                        </g>
                    </g>
                </g>
                <g id="g4101">
                    <g id="g4103" />
                    <g id="g4115">
                        <g clip-path="url(#clipPath4107)" id="g4113" style="opacity:0.60000598">
                            <g transform="translate(802.959,324.8086)" id="g4111">
                                <path d="m 0,0 c -2.573,2.789 -6.538,4.461 -10.562,5.717 -15.262,4.764 -24.102,13.995 -35.769,24.36 -9.538,8.472 -19.999,-1.18 -23.883,-10.225 -2.459,-5.731 -4.539,-14.373 -0.324,-19.819 5.31,-6.859 18.211,-4.876 25.894,-6.119 10.614,-1.717 20.992,-4.894 30.74,-9.429 2.309,-1.074 4.641,-2.241 7.172,-2.528 6.006,-0.683 9.53,4.666 9.63,10.12 C 2.961,-4.544 1.834,-1.988 0,0" style="fill:#dddddd;fill-opacity:1;fill-rule:nonzero;stroke:none" id="path4109" inkscape:connector-curvature="0" />
                            </g>
                        </g>
                    </g>
                </g>
                <g id="g4117" transform="translate(838.3799,408.7676)">
                    <path d="m 0,0 c 7.619,62.164 21.504,219.22 84.749,197.485 58.933,-20.253 55.887,-132.688 68.087,-207.801 0,0 -62.624,-3.19 -83.381,-1.624 C 51.87,-10.614 0,0 0,0" style="fill:#ffffff;fill-opacity:1;fill-rule:nonzero;stroke:none" id="path4119" inkscape:connector-curvature="0" />
                </g>
                <g id="g4121" transform="translate(839.8291,409.1553)">
                    <path d="m 0,0 c 3.43,28.065 6.489,56.169 11.369,84.033 5.102,29.135 11.253,59.774 25.244,86.138 5.09,9.591 11.745,19.485 21.408,24.967 10.672,6.055 22.948,3.131 33.078,-2.672 27.257,-15.616 36.692,-51.122 42.447,-79.714 8.23,-40.886 9.773,-82.721 16.392,-123.845 0.8,0.311 1.601,0.622 2.402,0.933 -19.296,-0.981 -38.618,-1.725 -57.937,-1.989 -10.471,-0.143 -21.006,-0.307 -31.416,1.004 -12.333,1.555 -24.584,3.843 -36.799,6.128 -8.825,1.651 -17.641,3.358 -26.438,5.157 -0.642,0.131 -3.099,-0.912 -2.398,-1.056 20.049,-4.099 40.202,-8.126 60.48,-10.918 22.433,-3.088 45.63,-1.33 68.17,-0.478 8.145,0.309 16.291,0.65 24.433,1.064 0.386,0.019 2.504,0.29 2.401,0.932 -6.243,38.789 -8.008,78.174 -15.054,116.851 -5.477,30.065 -14.117,68.066 -41.916,85.663 C 40.821,227.04 18.924,135.821 11.644,100.069 4.857,66.743 1.224,32.948 -2.898,-0.776 -2.928,-1.02 -0.1,-0.814 0,0" style="fill:#6a79a8;fill-opacity:1;fill-rule:nonzero;stroke:none" id="path4123" inkscape:connector-curvature="0" />
                </g>
                <g id="g4125" transform="translate(939.1992,658.7026)">
                    <path d="m 0,0 c -5.584,31.542 -23.998,54.654 -41.129,51.621 -17.13,-3.033 -26.49,-31.061 -20.906,-62.603 0.129,-0.73 0.772,-4.364 1,-5.653 3.097,-17.489 6.741,-29.411 10.844,-37.431 8.434,-16.487 30.656,-20.058 30.656,-20.058 0,0 20.17,10.934 22.899,27.49 1.494,9.063 0.983,22.078 -2.363,40.981 C 0.779,-4.403 0.136,-0.768 0,0" style="fill:#ffffff;fill-opacity:1;fill-rule:nonzero;stroke:none" id="path4127" inkscape:connector-curvature="0" />
                </g>
                <g id="g4129" transform="translate(900.7266,593.5439)">
                    <path d="m 0,0 c -14.297,10.56 -17.74,30.54 -20.767,46.991 -3.156,17.154 -5.043,35.186 1.464,51.86 2.685,6.878 7.39,14.677 14.928,16.925 6.791,2.025 13.773,-1.441 18.881,-5.732 C 27.759,98.909 34.159,80.686 37.13,64.172 40.347,46.289 46.286,22.264 35.011,6.104 c -0.635,-0.912 2.2,-0.553 2.655,0.099 10.929,15.664 6.009,38.098 2.929,55.541 -3.178,17.994 -9.261,38.237 -24.263,50.073 -9.679,7.637 -22.51,7.948 -31.236,-1.324 C -27.52,97.091 -28.018,74.33 -25.571,57.277 -23.959,46.038 -21.739,34.701 -18.358,23.856 -15.276,13.968 -11.26,5.263 -2.714,-1.05 -2.001,-1.576 0.588,-0.435 0,0" style="fill:#6a79a8;fill-opacity:1;fill-rule:nonzero;stroke:none" id="path4131" inkscape:connector-curvature="0" />
                </g>
                <g id="g4133" transform="translate(975.8691,378.1289)">
                    <path d="M 0,0 C 1.179,11.853 2.848,24.457 3.474,36.659 3.813,43.281 3.878,49.925 3.415,56.543 3.094,61.138 3.451,71.959 0.379,75.6 c -3.917,4.64 -20.361,0.499 -26.022,0.133 -9.222,-0.594 -18.584,-1.354 -27.83,-0.902 -18.098,0.883 -72.054,11.216 -72.055,11.216 -1.942,-0.014 -7.43,-62.873 -8.091,-68.606 -2.147,-18.607 -5.268,-37.051 -6.418,-55.775 -0.617,-10.059 -4.112,-31.806 3.292,-40.497 0.785,-0.921 1.458,-1.819 2.715,-2.097 5.59,-1.233 10.644,8.988 12.668,12.597 13.035,23.247 17.644,50.129 29.682,73.956 2.7,5.342 5.81,10.729 10.679,14.208 4.719,3.371 12.298,7.036 17.618,3.43 11.47,-7.774 17.319,-25.463 22.27,-37.936 4.162,-10.485 7.525,-21.289 10.042,-32.286 2.368,-10.35 3.693,-20.895 8.448,-30.544 1.952,-3.96 4.303,-8.713 8.998,-9.44 5.718,-0.887 8.036,15.011 8.581,18.048 3.683,20.535 2.874,41.624 4.467,62.378 C -0.41,-4.346 -0.216,-2.173 0,0" style="fill:#ffffff;fill-opacity:1;fill-rule:nonzero;stroke:none" id="path4135" inkscape:connector-curvature="0" />
                </g>
                <g id="g4137" transform="translate(977.3047,378.3604)">
                    <path d="m 0,0 c 1.738,17.187 4.244,34.411 3.678,51.731 -0.206,6.293 -0.004,13.123 -1.361,19.29 -0.898,4.091 -2.689,6.324 -6.878,6.966 -4.997,0.766 -10.292,-0.173 -15.236,-0.905 -7.133,-1.058 -14.303,-1.513 -21.511,-1.803 -11.349,-0.455 -22.315,0.737 -33.513,2.383 -10.799,1.589 -21.561,3.423 -32.306,5.334 -5.903,1.051 -12.5,3.253 -18.509,3.398 -3.761,0.09 -3.607,-3.089 -4.098,-6.167 -1.335,-8.365 -2.152,-16.826 -3.03,-25.248 -1.855,-17.801 -3.313,-35.625 -5.664,-53.372 -2.127,-16.068 -3.743,-32.098 -5.137,-48.241 -0.858,-9.919 -2.814,-23.514 3.418,-32.17 6.111,-8.488 14.157,2.287 17.273,7.743 7.885,13.807 13.055,28.697 18.154,43.694 2.761,8.12 5.558,16.239 8.932,24.13 3.42,7.996 7.223,17.454 14.478,22.732 5.042,3.669 11.271,5.836 16.706,1.856 3.021,-2.214 5.506,-5.361 7.587,-8.439 3.922,-5.799 6.736,-12.293 9.329,-18.768 6.129,-15.316 11.481,-30.729 14.85,-46.909 1.737,-8.343 3.317,-16.776 6.95,-24.549 1.924,-4.116 4.603,-9.899 9.777,-10.493 7.506,-0.861 9.339,9.821 10.386,15.119 2.966,14.995 3.556,30.262 4.114,45.496 C -1.279,-18.113 -0.877,-9.047 0,0 0.085,0.877 -2.797,0.306 -2.871,-0.463 -4.43,-16.55 -4.339,-32.717 -5.487,-48.828 c -0.763,-10.697 -1.175,-24.297 -6.027,-34.267 -4.01,-8.242 -9.963,3.146 -11.857,7.366 -3.263,7.269 -4.79,15.117 -6.392,22.875 -3.166,15.347 -8.057,29.936 -13.741,44.509 -4.254,10.907 -9.046,23.955 -18.896,31.136 -8.12,5.919 -19.802,-0.532 -25.509,-7.099 -9.616,-11.066 -14.173,-27.394 -18.823,-41.001 -5.108,-14.944 -10.031,-29.932 -17.683,-43.814 -2.173,-3.941 -7.976,-15.689 -12.944,-8.68 -3.141,4.431 -3.76,10.269 -3.971,15.55 -0.518,12.929 1.245,26.53 2.633,39.359 2.219,20.521 5.124,40.926 7.116,61.474 0.87,8.974 1.763,17.946 2.773,26.905 0.435,3.86 0.886,7.719 1.414,11.567 0.323,2.346 1.212,5.045 1.225,7.401 0.008,1.461 1.29,1.14 -0.752,1.079 -2.892,-0.085 -0.307,-0.436 0.039,-0.563 2.173,-0.794 4.867,-0.913 7.138,-1.332 8.944,-1.648 17.9,-3.236 26.872,-4.728 9.815,-1.633 19.656,-3.226 29.55,-4.319 12.037,-1.33 24.301,-0.853 36.337,0.309 4.949,0.479 9.813,1.603 14.787,1.895 6.731,0.394 10.634,-0.726 11.844,-7.763 C 2.141,54.536 1.041,38.739 -0.286,24.212 -1.039,15.976 -2.039,7.765 -2.871,-0.463 -2.959,-1.337 -0.078,-0.771 0,0" style="fill:#6a79a8;fill-opacity:1;fill-rule:nonzero;stroke:none" id="path4139" inkscape:connector-curvature="0" />
                </g>
                <g id="g4141" transform="translate(979.3486,453.1709)">
                    <path d="m 0,0 c -21.859,-0.748 -44.021,-2.019 -65.875,-0.505 -13.271,0.92 -26.388,3.477 -39.404,6.317 -6.379,1.392 -12.732,2.972 -19.129,4.266 -1.698,0.344 -7.764,1.743 -6.243,-2.329 1.068,-2.858 7.639,-4.686 10.083,-5.534 5.093,-1.771 10.723,-2.497 16.027,-3.58 10.599,-2.165 21.283,-3.978 32.057,-4.724 22.636,-1.568 45.582,-0.307 68.223,0.467 1.995,0.068 6.023,0.982 7.038,3.101 C 3.83,-0.323 1.76,0.06 0,0" style="fill:#f2f2f2;fill-opacity:1;fill-rule:nonzero;stroke:none" id="path4143" inkscape:connector-curvature="0" />
                </g>
                <g id="g4145" transform="translate(874.3291,440.0459)">
                    <path d="m 0,0 c -1.497,-5.811 -5.019,-10.604 -10.082,-13.799 -1.537,-0.97 -2.183,-2.98 -0.558,-4.158 1.762,-1.275 4.586,-0.412 6.21,0.613 C 2.191,-13.166 6.822,-6.777 8.772,0.793 9.77,4.666 0.915,3.554 0,0" style="fill:#f2f2f2;fill-opacity:1;fill-rule:nonzero;stroke:none" id="path4147" inkscape:connector-curvature="0" />
                </g>
                <g id="g4149" transform="translate(874.4443,441.5254)">
                    <path d="m 0,0 c -1.646,-6.39 -5.464,-11.891 -11.072,-15.43 -1.641,-1.035 0.926,-1.163 1.741,-0.648 6.08,3.837 10.41,9.515 12.211,16.506 C 3.104,1.294 0.224,0.868 0,0" style="fill:#6a79a8;fill-opacity:1;fill-rule:nonzero;stroke:none" id="path4151" inkscape:connector-curvature="0" />
                </g>
                <g id="g4153" transform="translate(942.6582,594.4111)">
                    <path d="m 0,0 c 38.874,-36.243 37.899,-130.34 48.558,-195.959 -0.033,0.2 -12.154,-0.565 -12.86,-0.596 -6.209,-0.267 -13.06,-1.951 -18.165,2.382 -6.068,5.152 -10.3,15.225 -13.626,22.273 -8.061,17.083 -12.547,35.72 -14.569,54.45 -2.122,19.651 -1.641,39.469 -0.392,59.161 0.544,8.569 2.907,18.691 1.305,27.046 -1.341,6.999 -7.173,14.45 -1.944,21.307 1.022,1.342 2.526,1.848 3.918,2.736 C -6.998,-6.704 0.597,-0.556 0,0" style="fill:#00a2df;fill-opacity:1;fill-rule:nonzero;stroke:none" id="path4155" inkscape:connector-curvature="0" />
                </g>
                <g id="g4157" transform="translate(941.3291,593.7842)">
                    <path d="m 0,0 c 17.45,-16.55 25.146,-41.066 30.335,-63.885 6.392,-28.109 9.126,-56.932 12.234,-85.543 1.681,-15.463 3.399,-30.931 5.869,-46.292 0.764,0.446 1.529,0.891 2.292,1.337 -3.236,0.756 -7.358,-0.16 -10.642,-0.351 -6.566,-0.384 -14.548,-2.38 -20.103,2.005 -6.201,4.894 -9.519,13.736 -12.737,20.643 -3.926,8.428 -7.195,17.066 -9.64,26.044 -5.307,19.493 -7.01,39.743 -6.932,59.892 0.039,10.065 0.337,20.201 1.186,30.233 0.677,7.978 2.519,16.079 1.422,24.103 -0.588,4.301 -2.589,8.132 -3.68,12.293 -0.694,2.644 -1.18,6.263 0.508,8.687 1.165,1.672 3.079,2.605 4.635,3.805 1.898,1.464 8.252,5.272 8.031,8.045 -0.1,1.261 -3.006,0.58 -2.898,-0.777 0.068,-0.849 -4.681,-4.17 -5.486,-4.796 -1.623,-1.26 -3.596,-2.119 -5.116,-3.483 -5.695,-5.118 -2.393,-12.77 -0.366,-18.719 3.105,-9.111 1.101,-18.437 0.177,-27.744 -1.048,-10.557 -1.302,-21.286 -1.343,-31.889 -0.077,-19.712 1.508,-39.538 6.494,-58.662 2.444,-9.369 5.743,-18.433 9.829,-27.208 3.124,-6.709 6.102,-13.882 11.043,-19.493 5.444,-6.179 11.967,-5.893 19.604,-5.335 2.298,0.168 4.602,0.284 6.903,0.415 2.13,0.121 5.346,0.88 7.424,0.395 0.837,-0.197 2.478,0.18 2.293,1.337 -4.54,28.228 -6.688,56.777 -10.277,85.13 -3.423,27.034 -7.522,54.889 -18.172,80.169 C 18.073,-18.217 11.713,-7.332 2.658,1.255 1.744,2.122 -0.996,0.943 0,0" style="fill:#6a79a8;fill-opacity:1;fill-rule:nonzero;stroke:none" id="path4159" inkscape:connector-curvature="0" />
                </g>
                <g id="g4161" transform="translate(888.9277,598.3418)">
                    <path d="m 0,0 c 3.654,-7.923 15.984,-9.272 12.211,-18.761 -7.028,-17.676 -17.655,-32.884 -22.58,-51.746 -7.371,-28.235 -14.312,-57.267 -21.567,-85.322 -3.037,-11.743 -4.793,-30.06 -18.612,-33.745 C -44.558,-140.696 -34.688,-33.168 0,0" style="fill:#00a2df;fill-opacity:1;fill-rule:nonzero;stroke:none" id="path4163" inkscape:connector-curvature="0" />
                </g>
                <g id="g4165" transform="translate(887.4795,597.9531)">
                    <path d="m 0,0 c 2.08,-3.981 5.65,-6.136 8.986,-8.944 4.996,-4.206 3.975,-8.076 1.575,-13.614 -5.764,-13.302 -13.41,-25.75 -18.324,-39.426 -5.474,-15.236 -8.56,-31.567 -12.475,-47.26 -3.947,-15.818 -8.054,-31.598 -11.949,-47.428 -2.706,-11.002 -4.236,-27.987 -17.08,-31.892 0.537,-0.138 1.073,-0.275 1.609,-0.413 3.086,25.257 5.849,50.546 9.957,75.666 4.532,27.719 10.064,55.936 20.816,82.006 4.739,11.492 10.668,22.959 19.668,31.715 0.766,0.744 -2.069,0.541 -2.67,-0.043 -17.07,-16.606 -24.649,-42.305 -30.51,-64.659 -7.307,-27.87 -11.653,-56.474 -15.311,-85.02 -1.711,-13.349 -3.201,-26.724 -4.833,-40.084 -0.09,-0.731 1.244,-0.522 1.607,-0.411 9.846,2.994 14.129,11.677 16.678,21.034 3.859,14.162 7.066,28.562 10.625,42.807 4.437,17.752 8.818,35.52 13.416,53.231 4.106,15.812 11.832,29.725 18.814,44.369 2.241,4.699 7.261,11.846 4.22,17.124 C 11.94,-6.248 5.655,-4.501 2.897,0.777 2.436,1.661 -0.359,0.687 0,0" style="fill:#6a79a8;fill-opacity:1;fill-rule:nonzero;stroke:none" id="path4167" inkscape:connector-curvature="0" />
                </g>
                <g id="g4169" transform="translate(945.3574,586.1172)">
                    <path d="m 0,0 c -9.747,-11.283 -5.89,-27.873 -5.276,-41.393 0.351,-7.747 1.331,-17.078 -3.315,-23.781 -3.118,-4.499 -6.15,-7.517 -7.662,-13.011 -0.219,-0.794 2.645,-0.389 2.875,0.448 1.567,5.695 5.117,8.891 8.12,13.663 3.275,5.206 3.094,11.946 3.043,17.883 -0.124,14.647 -5.736,34.011 4.87,46.29 C 3.346,0.897 0.522,0.605 0,0" style="fill:#6a79a8;fill-opacity:1;fill-rule:nonzero;stroke:none" id="path4171" inkscape:connector-curvature="0" />
                </g>
                <g id="g4173" transform="translate(886.0049,588.1934)">
                    <path d="m 0,0 c 9.436,-8.939 -0.325,-20.72 -4.536,-29.483 -4.198,-8.735 -2.98,-18.474 -3.488,-27.849 -0.08,-1.445 2.86,-0.996 2.927,0.248 0.299,5.503 -0.025,11.045 0.489,16.533 0.594,6.366 3.128,11.412 6.278,16.869 4.343,7.524 8.448,17.866 0.99,24.931 C 1.755,2.107 -0.985,0.934 0,0" style="fill:#6a79a8;fill-opacity:1;fill-rule:nonzero;stroke:none" id="path4175" inkscape:connector-curvature="0" />
                </g>
                <g id="g4177" transform="translate(896.9043,617.0137)">
                    <path d="M 0,0 C 1.554,1.002 3.591,1.559 5.614,1.77 6.796,1.893 8.015,1.903 9.102,1.638 10.974,1.18 12.245,-0.085 12.54,-1.48 12.835,-2.876 12.235,-4.369 11.15,-5.642 6.303,-11.326 -6.597,-4.257 0,0" style="fill:#6a79a8;fill-opacity:1;fill-rule:nonzero;stroke:none" id="path4179" inkscape:connector-curvature="0" />
                </g>
                <g id="g4181" transform="translate(360.3965,760.3848)">
                    <path d="m 0,0 0.007,-240.586 c 0,-5.857 4.763,-10.604 10.638,-10.604 l 216.766,0.006 c 5.875,0 10.637,4.748 10.637,10.605 l -0.001,37.496 -0.179,20.665 -0.007,228.472 c 0,5.857 -4.763,10.604 -10.638,10.604 L 56.649,56.653 0.001,0.05 Z" style="fill:#ffffff;fill-opacity:1;fill-rule:nonzero;stroke:none" id="path4183" inkscape:connector-curvature="0" />
                </g>
                <g id="g4185" transform="translate(358.9419,760.2246)">
                    <path d="m 0,0 c 0.001,-30.842 0.001,-61.685 0.002,-92.527 0.002,-44.075 0.003,-88.149 0.004,-132.223 0.001,-9.965 -2.843,-26.415 11.573,-27.172 10.36,-0.545 20.896,0 31.265,0 46.719,0.002 93.437,0.003 140.156,0.005 14.324,0 28.648,0.001 42.973,0.001 6.319,0 12.922,2.071 14.66,9.046 0.827,3.321 0.324,7.252 0.324,10.627 0,5.987 0,11.974 0,17.962 -0.001,26.373 -0.181,52.745 -0.182,79.119 -0.001,47.404 -0.002,94.808 -0.004,142.213 0,12.707 0.138,25.424 0,38.132 C 240.61,59.778 226,57.71 215.838,57.71 171.347,57.708 126.856,57.707 82.366,57.706 c -6.719,0 -13.437,0 -20.155,-0.001 -2.892,0 -4.472,0.192 -6.604,-1.914 C 40.718,41.077 25.99,26.197 11.183,11.402 8.451,8.672 5.72,5.943 2.988,3.213 2.41,2.636 0.021,0.967 0,0 -0.028,-1.296 2.886,-0.742 2.909,0.32 2.897,-0.239 2.88,0.15 3.526,0.808 c 0.944,0.96 1.906,1.903 2.858,2.856 2.967,2.963 5.933,5.928 8.9,8.892 8.332,8.325 16.664,16.651 24.996,24.976 5.802,5.797 12.881,11.393 17.904,17.889 0.139,0.181 1.091,0.844 1.086,1.085 0.052,-2.127 -2.775,-0.075 -0.951,-0.585 1.393,-0.39 3.482,0 4.915,0 41.779,10e-4 83.558,0.003 125.337,0.004 13.039,0 26.258,0.638 39.285,0.001 13.352,-0.653 10.005,-19.358 10.006,-28.4 0.001,-43.875 0.002,-87.751 0.004,-131.626 0,-28.722 -0.179,-57.451 0.07,-86.172 0.145,-16.669 1.095,-33.648 0.112,-50.273 -0.521,-8.809 -7.199,-9.587 -13.807,-9.587 -6.179,0 -12.357,0 -18.535,-0.001 -44.928,-10e-4 -89.856,-0.002 -134.784,-0.004 -16.844,0 -33.69,-0.001 -50.535,-0.001 -2.565,0 -5.18,-0.146 -7.742,0 -8.649,0.492 -9.729,7.656 -9.729,14.281 -10e-4,37.461 -0.002,74.923 -0.003,112.386 -10e-4,39.03 -0.003,78.06 -0.004,117.091 v 6.7 C 2.909,1.623 0,1.055 0,0" style="fill:#6a79a8;fill-opacity:1;fill-rule:nonzero;stroke:none" id="path4187" inkscape:connector-curvature="0" />
                </g>
                <g id="g4189" transform="translate(415.7129,816.8594)">
                    <path d="m 0,0 c 0,-13.883 0,-27.765 0.001,-41.648 0,-1.923 0.166,-3.983 -0.185,-5.884 -1.035,-5.595 -5.608,-8.19 -10.883,-8.225 -7.787,-0.051 -15.576,0 -23.363,0 -6.775,-0.001 -13.55,-0.001 -20.326,-0.001 0.201,-0.36 0.402,-0.72 0.604,-1.08 18.922,18.923 37.844,37.846 56.766,56.769 1.196,1.196 -1.636,1.187 -2.329,0.495 -18.922,-18.924 -37.844,-37.847 -56.766,-56.77 -0.584,-0.584 -0.119,-1.08 0.604,-1.08 14.76,0 29.528,-0.158 44.287,10e-4 7.597,0.082 14.135,4.252 14.49,12.43 0.319,7.322 0,14.727 0,22.054 C 2.899,-15.174 2.899,-7.409 2.899,0.356 2.899,1.573 0,0.967 0,0" style="fill:#6a79a8;fill-opacity:1;fill-rule:nonzero;stroke:none" id="path4191" inkscape:connector-curvature="0" />
                </g>
                <g id="g4193" transform="translate(426.5586,647.4473)">
                    <path d="m 0,0 h 87.515 12.377 c 1.187,0 3.04,1.793 1.087,1.793 H 13.464 1.087 C -0.1,1.793 -1.953,0 0,0" style="fill:#6a79a8;fill-opacity:1;fill-rule:nonzero;stroke:none" id="path4195" inkscape:connector-curvature="0" />
                </g>
                <g id="g4197" transform="translate(382.4673,581.3828)">
                    <path d="m 0,0 h 63.61 100.947 23.461 c 1.05,0 3.09,1.582 1.144,1.582 H 125.551 24.605 1.144 C 0.093,1.582 -1.946,0 0,0" style="fill:#6a79a8;fill-opacity:1;fill-rule:nonzero;stroke:none" id="path4199" inkscape:connector-curvature="0" />
                </g>
                <g id="g4201" transform="translate(382.0986,608.0542)">
                    <path d="m 0,0 h 63.61 100.946 23.462 c 0.614,0 3.276,1.175 1.881,1.175 H 126.289 25.343 1.881 C 1.267,1.175 -1.395,0 0,0" style="fill:#6a79a8;fill-opacity:1;fill-rule:nonzero;stroke:none" id="path4203" inkscape:connector-curvature="0" />
                </g>
                <g id="g4205" transform="translate(382.4951,554.8105)">
                    <path d="m 0,0 h 82.951 11.765 c 1.185,0 3.04,1.79 1.088,1.79 H 12.853 1.088 C -0.097,1.79 -1.953,0 0,0" style="fill:#6a79a8;fill-opacity:1;fill-rule:nonzero;stroke:none" id="path4207" inkscape:connector-curvature="0" />
                </g>
                <g id="g4209" transform="translate(443.5439,702.5005)">
                    <path d="m 0,0 c 17.875,17.853 53.158,18.094 71.613,0.972 0.913,-0.847 3.651,0.33 2.66,1.249 C 54.361,20.695 16.795,19.96 -2.406,0.782 -3.672,-0.482 -0.871,-0.87 0,0" style="fill:#6a79a8;fill-opacity:1;fill-rule:nonzero;stroke:none" id="path4211" inkscape:connector-curvature="0" />
                </g>
                <g id="g4402">
                    <g transform="translate(436.5562,733.5332)" id="g4213">
                        <path inkscape:connector-curvature="0" class="close-eyes" id="path4215" style="fill:#6a79a8;fill-opacity:1;fill-rule:nonzero;stroke:none" d="m 0,0 c 0,3.007 -2.438,5.445 -5.446,5.445 -3.008,0 -5.446,-2.438 -5.446,-5.445 0,-3.008 2.438,-5.446 5.446,-5.446 C -2.438,-5.446 0,-3.008 0,0" />
                    </g>
                    <g transform="translate(531.6924,733.5332)" id="g4217">
                        <path inkscape:connector-curvature="0" class="close-eyes" id="path4219" style="fill:#6a79a8;fill-opacity:1;fill-rule:nonzero;stroke:none" d="m 0,0 c 0,3.007 -2.438,5.445 -5.445,5.445 -3.008,0 -5.446,-2.438 -5.446,-5.445 0,-3.008 2.438,-5.446 5.446,-5.446 C -2.438,-5.446 0,-3.008 0,0" />
                    </g>
                </g>
                <g id="g4221" transform="translate(458.4019,855.415)">
                    <path d="m 0,0 -145.981,-17.428 c -9.46,-1.129 -18.043,5.623 -19.173,15.083 l -7.315,61.27 c -1.129,9.459 5.624,18.043 15.083,19.173 L -11.404,95.525 C -1.945,96.655 6.639,89.902 7.768,80.443 L 15.083,19.172 C 16.212,9.713 9.459,1.129 0,0" style="fill:#d9232e;fill-opacity:1;fill-rule:nonzero;stroke:none" id="path4223" inkscape:connector-curvature="0" />
                </g>
                <g id="g4225" transform="translate(458.4019,855.415)">
                    <path d="m 0,0 -136.611,-16.309 c -9.459,-1.129 -18.043,5.623 -19.172,15.082 l -5.927,49.646 c -1.129,9.46 5.624,18.044 15.083,19.173 l 136.61,16.309 c 9.46,1.13 18.044,-5.623 19.173,-15.082 L 15.083,19.172 C 16.212,9.713 9.459,1.129 0,0" style="fill:#f25555;fill-opacity:1;fill-rule:nonzero;stroke:none" id="path4227" inkscape:connector-curvature="0" />
                </g>
                <g id="g4229" transform="translate(458.4888,856.4927)">
                    <path d="m 0,0 c -32.132,-3.836 -64.264,-7.672 -96.396,-11.508 -15.458,-1.846 -30.917,-3.692 -46.375,-5.537 -8.863,-1.058 -17.87,1.767 -20.552,11.437 -1.669,6.017 -1.733,12.788 -2.469,18.952 -1.258,10.542 -2.517,21.083 -3.775,31.625 -0.856,7.168 -3.289,16.11 0.196,22.847 3.625,7.008 10.261,8.055 17.094,8.871 6.757,0.807 13.515,1.613 20.274,2.42 37.962,4.533 75.924,9.065 113.887,13.597 5.759,0.688 11.239,1.761 16.614,-1.508 C 6.298,86.454 6.35,77.615 7.302,69.639 9.358,52.423 12.009,35.169 13.48,17.893 14.219,9.217 8.827,1.4 0,0 c -1.556,-0.247 -2.244,-2.365 -0.275,-2.053 11.12,1.764 17.733,10.794 16.516,21.869 -0.986,8.97 -2.14,17.925 -3.21,26.885 -1.187,9.949 -2.375,19.898 -3.563,29.846 -1.187,9.946 -6.806,18.61 -17.827,19.087 -3.897,0.169 -7.99,-0.699 -11.838,-1.158 -8.196,-0.979 -16.392,-1.957 -24.588,-2.936 -22.868,-2.73 -45.736,-5.46 -68.604,-8.19 -14.426,-1.723 -28.887,-3.265 -43.29,-5.168 -9.86,-1.304 -17.943,-8.895 -17.485,-19.327 0.306,-6.943 1.614,-13.955 2.437,-20.847 l 3.952,-33.104 c 0.989,-8.28 1.409,-16.73 9.373,-21.694 5.402,-3.367 11.032,-2.824 16.936,-2.119 7.216,0.861 14.431,1.722 21.647,2.584 L -3.023,-2.381 c 0.916,0.109 1.832,0.218 2.748,0.328 C 1.306,-1.864 1.979,0.236 0,0" style="fill:#6a79a8;fill-opacity:1;fill-rule:nonzero;stroke:none" id="path4231" inkscape:connector-curvature="0" />
                </g>
                <g id="g4233" transform="translate(596.8789,698.269)">
                    <path d="m 0,0 c 0.158,-6.436 4.35,-13.465 8.144,-18.361 9.012,-11.633 22.964,-17.182 37.225,-18.937 0.854,-0.105 3.387,1.298 1.796,1.494 C 32.89,-34.047 19.12,-28.395 10.329,-16.582 6.872,-11.936 3.046,-5.26 2.898,0.776 2.877,1.601 -0.026,1.062 0,0" style="fill:#6a79a8;fill-opacity:1;fill-rule:nonzero;stroke:none" id="path4235" inkscape:connector-curvature="0" />
                </g>
                <g id="g4237" transform="translate(361.3296,697.9199)">
                    <path d="m 0,0 c -6.571,0.368 -13.617,3.75 -19.307,6.72 -13.235,6.906 -24.22,17.236 -32.856,29.34 -0.521,0.731 -3.155,-0.414 -2.897,-0.776 8.902,-12.479 20.243,-23.117 33.99,-30.063 5.754,-2.908 12.642,-6.083 19.203,-6.45 C -1.211,-1.266 1.444,-0.081 0,0" style="fill:#6a79a8;fill-opacity:1;fill-rule:nonzero;stroke:none" id="path4239" inkscape:connector-curvature="0" />
                </g>
                <g id="g4241" transform="translate(312.5459,699.5952)">
                    <path d="m 0,0 c -5.499,47.015 -10.998,94.03 -16.497,141.045 -0.788,6.732 -1.575,13.464 -2.362,20.196 -0.117,0.992 -3.029,0.343 -2.898,-0.776 C -16.258,113.45 -10.759,66.435 -5.26,19.42 -4.473,12.688 -3.685,5.956 -2.897,-0.776 -2.782,-1.768 0.131,-1.119 0,0" style="fill:#6a79a8;fill-opacity:1;fill-rule:nonzero;stroke:none" id="path4243" inkscape:connector-curvature="0" />
                </g>
                <g id="g4245" transform="translate(468.0859,509.0234)">
                    <path d="m 0,0 v -25.366 c 0,-1.252 2.903,-0.662 2.903,0.342 V 0.342 C 2.903,1.594 0,1.004 0,0" style="fill:#6a79a8;fill-opacity:1;fill-rule:nonzero;stroke:none" id="path4247" inkscape:connector-curvature="0" />
                </g>
                <g id="g4249" transform="translate(487.8525,509.0215)">
                    <path d="m 0,0 v -25.366 c 0,-1.242 2.902,-0.648 2.902,0.345 V 0.346 C 2.902,1.588 0,0.993 0,0" style="fill:#6a79a8;fill-opacity:1;fill-rule:nonzero;stroke:none" id="path4251" inkscape:connector-curvature="0" />
                </g>
                <g id="g4253">
                    <g id="g4255" />
                    <g id="g4267">
                        <g clip-path="url(#clipPath4259)" id="g4265" style="opacity:0.30000299">
                            <g transform="translate(775.665,543.3154)" id="g4263" />
                        </g>
                    </g>
                </g>
                <g id="g4269" transform="translate(823.5479,518.4062)" />
                <g id="g4273" transform="translate(825.0078,506.7383)" />
                <g id="g4277" transform="translate(791.2559,509.0977)" />
                <g id="g4281" transform="translate(818.543,500.0479)" />
                <g id="g4285" transform="translate(810.6963,513.1113)">
                    <path d="m 0,0 c -0.244,-0.756 -1.561,-1.006 -2.94,-0.559 -1.379,0.448 -2.299,1.422 -2.054,2.177 0.245,0.756 1.561,1.005 2.94,0.559 C -0.675,1.729 0.245,0.755 0,0" style="fill:#ffffff;fill-opacity:1;fill-rule:nonzero;stroke:none" id="path4287" inkscape:connector-curvature="0" />
                </g>
                <g id="g4289" transform="translate(801.1836,516.1943)">
                    <path d="m 0,0 c -0.245,-0.755 -1.562,-1.005 -2.94,-0.559 -1.379,0.448 -2.299,1.422 -2.054,2.177 0.245,0.756 1.561,1.006 2.94,0.559 C -0.675,1.729 0.245,0.755 0,0" style="fill:#ffffff;fill-opacity:1;fill-rule:nonzero;stroke:none" id="path4291" inkscape:connector-curvature="0" />
                </g>
                <g id="g4293" transform="translate(809.4365,512.4678)" />
                <g id="g4297" transform="translate(799.9238,515.5518)">
                    <g id="g4385">
                        <g id="g4396" class="torch-pan">
                            <path inkscape:connector-curvature="0" id="path4271" style="fill:#d7e9f4;fill-opacity:1;fill-rule:nonzero;stroke:none" d="m 0,0 -26.962,8.739 -23.68,17.218 c -0.643,0.633 -1.358,1.158 -2.141,1.557 l -0.265,0.192 -0.023,-0.073 c -0.288,0.134 -0.576,0.267 -0.882,0.366 -6.61,2.143 -14.728,-4.64 -18.133,-15.146 -3.405,-10.508 -0.81,-20.763 5.8,-22.905 0.306,-0.099 0.617,-0.159 0.929,-0.22 l -0.024,-0.074 0.327,10e-4 c 0.868,-0.136 1.755,-0.131 2.648,0.005 l 29.278,0.053 26.961,-8.738 c 3.305,-1.071 7.363,2.32 9.066,7.574 C 4.603,-6.197 3.304,-1.07 0,0" transform="translate(23.624071,2.8544005)" />
                            <path inkscape:connector-curvature="0" id="path4275" style="fill:#6a79a8;fill-opacity:1;fill-rule:nonzero;stroke:none" d="m 0,0 c -1.195,-3.277 -6.199,-10.218 -9.044,-4.157 -1.221,2.601 -0.9,5.824 -0.043,8.469 0.82,2.532 4.506,9.514 8.227,5.483 C 1.473,7.269 0.825,2.931 0,0 c -0.234,-0.833 2.637,-0.428 2.879,0.434 1.214,4.312 1.274,11.93 -4.831,12.121 -4.94,0.154 -8.623,-4.383 -10.014,-8.677 -1.354,-4.181 -1.247,-11.555 4.464,-12.106 5.181,-0.5 8.816,4.372 10.381,8.662 C 3.157,1.196 0.312,0.856 0,0" transform="translate(25.084021,-8.8134998)" />
                            <path transform="translate(-24.258781,27.763604)" d="m 0,0 -127.611,149.664 c -4.238,4.13 -8.941,7.56 -14.094,10.169 l -1.741,1.257 -0.154,-0.472 c -1.896,0.872 -3.791,1.75 -5.801,2.402 -43.439,14.079 -96.574,-29.802 -118.681,-98.01 -22.107,-68.208 -4.815,-134.915 38.624,-148.994 2.01,-0.652 4.06,-1.051 6.107,-1.457 l -0.152,-0.473 2.148,-0.004 c 5.703,-0.909 11.524,-0.891 17.379,-0.032 l 193.936,50.002 z" style="opacity:0.30000299;fill:#fce897;fill-opacity:1;fill-rule:nonzero;stroke:none" id="path4261" inkscape:connector-curvature="0" />
                            <path transform="translate(-8.6679302,-6.4540973)" d="m 0,0 c -6.429,2.809 -2.014,18.537 4.829,16.992 1.427,-0.321 2.912,1.68 1.002,2.111 C -4.048,21.332 -11.08,2.153 -1.672,-1.956 -0.454,-2.488 1.687,-0.736 0,0" style="fill:#6a79a8;fill-opacity:1;fill-rule:nonzero;stroke:none" id="path4279" inkscape:connector-curvature="0" />
                            <path transform="translate(18.61917,-15.503897)" d="m 0,0 c -4.336,1.405 -8.673,2.812 -13.01,4.217 -4.491,1.455 -9.254,3.677 -13.908,4.508 -3.326,0.593 -7.12,0.098 -10.485,0.091 -6.304,-0.01 -12.608,-0.022 -18.911,-0.034 -21.595,-0.039 -7.265,43.71 7.203,36.529 4.49,-2.229 8.717,-6.339 12.76,-9.279 4.12,-2.995 8.213,-6.701 12.657,-9.202 3.478,-1.958 7.92,-2.78 11.715,-4.01 5.274,-1.71 10.547,-3.419 15.822,-5.128 0.817,-0.265 3.434,0.974 2.324,1.333 -5.273,1.709 -10.548,3.419 -15.821,5.128 -3.731,1.209 -8.746,2.3 -11.712,4.045 -5.403,3.18 -10.383,7.55 -15.448,11.233 -3.362,2.444 -7.015,6.169 -10.972,7.593 -6.839,2.462 -13.847,-3.401 -17.294,-8.716 -4.839,-7.46 -8.237,-21.507 -0.774,-28.576 3.458,-3.276 7.75,-2.477 12.116,-2.469 6.963,0.012 13.925,0.025 20.889,0.038 1.165,0.003 2.374,0.096 3.537,0.007 1.203,-0.094 -0.405,0.149 0.402,-0.025 2.713,-0.583 5.405,-1.752 8.045,-2.607 C -14.685,2.673 -8.504,0.67 -2.324,-1.333 -1.506,-1.599 1.11,-0.36 0,0" style="fill:#6a79a8;fill-opacity:1;fill-rule:nonzero;stroke:none" id="path4283" inkscape:connector-curvature="0" />
                            <path transform="translate(9.5126702,-3.0840022)" d="m 0,0 c -0.244,-0.755 -1.561,-1.005 -2.94,-0.558 -1.379,0.447 -2.298,1.421 -2.054,2.177 0.245,0.755 1.561,1.005 2.94,0.558 C -0.675,1.73 0.245,0.756 0,0" style="fill:#6a79a8;fill-opacity:1;fill-rule:nonzero;stroke:none" id="path4295" inkscape:connector-curvature="0" />
                            <path d="m 0,0 c -0.244,-0.756 -1.562,-1.006 -2.94,-0.559 -1.379,0.448 -2.299,1.422 -2.054,2.177 0.245,0.755 1.561,1.005 2.94,0.559 C -0.675,1.729 0.245,0.755 0,0" style="fill:#6a79a8;fill-opacity:1;fill-rule:nonzero;stroke:none" id="path4299" inkscape:connector-curvature="0" />
                        </g>
                    </g>
                </g>
                <g id="g4301" transform="translate(959.7812,545.9219)">
                    <path d="m 0,0 c -0.009,0.019 -0.018,0.038 -0.027,0.057 -0.369,0.759 -2.109,0.018 -2.576,-0.281 -0.037,-0.023 -0.073,-0.047 -0.11,-0.071 -0.109,-0.07 -0.391,-0.314 -0.322,-0.495 0.831,-2.18 -2.364,-7.49 -3.414,-9.309 -1.881,-3.257 -4.281,-6.189 -6.977,-8.804 -5.433,-5.271 -11.977,-9.004 -18.949,-11.845 -15.996,-6.519 -32.074,-7.735 -49.088,-6.02 -15.673,1.58 -30.807,3.779 -44.991,11.018 -3.769,1.923 -20.913,9.696 -21.061,-0.142 -0.008,-0.597 2.884,-0.161 2.898,0.777 0.1,6.689 14.5,-1.207 16.171,-2.048 2.677,-1.347 5.361,-2.646 8.158,-3.731 6.592,-2.553 13.52,-4.104 20.488,-5.208 13.861,-2.193 28.39,-4.06 42.389,-2.323 12.634,1.568 25.734,5.401 36.679,12.024 5.312,3.214 10.24,7.272 14.068,12.186 1.596,2.046 3.012,4.244 4.161,6.572 0.414,0.839 2.571,7.471 2.154,7.204 -0.859,-0.094 -1.717,-0.187 -2.576,-0.281 0.009,-0.018 0.019,-0.038 0.028,-0.056 C -2.507,-1.58 0.295,-0.606 0,0" style="fill:#6a79a8;fill-opacity:1;fill-rule:nonzero;stroke:none" id="path4303" inkscape:connector-curvature="0" />
                </g>
                <g id="g4305" transform="translate(782.3848,505.7881)">
                    <path d="m 0,0 c -3.711,2.15 -6.289,7.734 -2.988,11.341 1.211,1.323 -1.577,1.647 -2.398,0.752 C -9.36,7.749 -6.94,1.118 -2.253,-1.599 -1.235,-2.188 1.35,-0.782 0,0" style="fill:#6a79a8;fill-opacity:1;fill-rule:nonzero;stroke:none" id="path4307" inkscape:connector-curvature="0" />
                </g>
                <g id="g4309" transform="translate(284.8081,614.8643)">
                    <path d="m 0,0 c -5.51,-1.702 -12.449,-0.928 -18.007,-0.18 -13.308,1.791 -25.775,7.025 -37.121,14.078 -0.793,0.493 -3.469,-0.672 -2.309,-1.394 12.159,-7.557 25.635,-12.992 39.943,-14.522 5.633,-0.602 12.34,-1.125 17.878,0.586 C 2.084,-0.907 1.738,0.537 0,0" style="fill:#dddddd;fill-opacity:1;fill-rule:nonzero;stroke:none" id="path4311" inkscape:connector-curvature="0" />
                </g>
                <g id="g4313" transform="translate(863.8984,556.0479)">
                    <path d="m 0,0 c -6.746,-16.577 -16.322,-31.825 -31.331,-41.968 -13.989,-9.452 -33.94,-18.218 -49.954,-8.559 -0.785,0.472 -3.31,-0.702 -2.71,-1.064 15.549,-9.377 34.957,-2.642 49.364,5.819 18.114,10.637 29.652,26.9 37.51,46.207 C 3.173,1.158 0.346,0.85 0,0" style="fill:#6a79a8;fill-opacity:1;fill-rule:nonzero;stroke:none" id="path4315" inkscape:connector-curvature="0" />
                </g>
                <g id="g4317">
                    <g id="g4319" />
                    <g id="g4331">
                        <g clip-path="url(#clipPath4323)" id="g4329" style="opacity:0.5">
                            <g transform="translate(922.2129,713.9536)" id="g4327">
                                <path d="m 0,0 c 3.819,-9.193 -8.476,-23.04 -27.462,-30.926 -18.985,-7.887 -37.473,-6.828 -41.291,2.365 -3.819,9.194 8.476,23.04 27.462,30.927 C -22.306,10.252 -3.818,9.193 0,0" style="fill:#00a2df;fill-opacity:1;fill-rule:nonzero;stroke:none" id="path4325" inkscape:connector-curvature="0" />
                            </g>
                        </g>
                    </g>
                </g>
            </g>
        </g>
    </g>
</svg>