<?xml version="1.0" encoding="UTF-8" standalone="no"?>
<!-- Created with Inkscape (http://www.inkscape.org/) -->

<svg
   xmlns:dc="http://purl.org/dc/elements/1.1/"
   xmlns:cc="http://creativecommons.org/ns#"
   xmlns:rdf="http://www.w3.org/1999/02/22-rdf-syntax-ns#"
   xmlns:svg="http://www.w3.org/2000/svg"
   xmlns="http://www.w3.org/2000/svg"
   xmlns:sodipodi="http://sodipodi.sourceforge.net/DTD/sodipodi-0.dtd"
   xmlns:inkscape="http://www.inkscape.org/namespaces/inkscape"
   version="1.1"
   id="svg5475"
   xml:space="preserve"
   width="832"
   height="1000"
   viewBox="0 0 832 1000"
   sodipodi:docname="order_completed.svg"
   inkscape:version="0.92.3 (2405546, 2018-03-11)"><metadata
     id="metadata5481"><rdf:RDF><cc:Work
         rdf:about=""><dc:format>image/svg+xml</dc:format><dc:type
           rdf:resource="http://purl.org/dc/dcmitype/StillImage" /><dc:title></dc:title></cc:Work></rdf:RDF></metadata><defs
     id="defs5479">
  <style>
    .tickmask{
        animation: showtick 3s linear;
        animation-iteration-count: infinite;
        transform-origin: 0 0;
        transform: translateX(0px) translateY(-10px);
        -webkit-transform: translateX(0px) translateY(-10px);
        -o-transform: translateX(0px) translateY(-10px);
        -ms-transform: translateX(0px) translateY(-10px);
    }

    @keyframes showtick {
      0% {
        transform: translateX(0px) translateY(-20px);
        -webkit-transform: translateX(0px) translateY(-20px);
        -o-transform: translateX(0px) translateY(-20px);
        -ms-transform: translateX(0px) translateY(-20px);
        opacity: 1;
      }
      65% {
        transform: translateX(150px) translateY(-20px) skewX(30deg);
        -webkit-transform: translateX(150px) translateY(-20px) skewX(30deg);
        -o-transform: translateX(150px) translateY(-20px) skewX(30deg);
        -ms-transform: translateX(150px) translateY(-20px) skewX(30deg);
        opacity: 1;
      }
      100% {
        transform: translateX(300px) translateY(-20px) skewX(30deg);
        -webkit-transform: translateX(300px) translateY(-20px) skewX(30deg);
        -o-transform: translateX(300px) translateY(-20px) skewX(30deg);
        -ms-transform: translateX(300px) translateY(-20px) skewX(30deg);
        opacity: 0;
      }
    }



  </style>
  <clipPath id="clipPath3">
            <path
             transform="scale(1,-1)"
             style="opacity:1;fill:none;fill-opacity:1;stroke:none;stroke-width:0.075;stroke-miterlimit:4;stroke-dasharray:none;stroke-opacity:1"
             d="M -43.743332,-66.828293 H 188.80298 V 79.025696 H -43.743332 Z"
             id="rect6188"
             inkscape:connector-curvature="0"
             inkscape:label="clipPath" />
 </clipPath>
  <clipPath
       clipPathUnits="userSpaceOnUse"
       id="clipPath5491"><path
         d="M 0,1200 H 1200 V 0 H 0 Z"
         id="path5489"
         inkscape:connector-curvature="0" /></clipPath><clipPath
       clipPathUnits="userSpaceOnUse"
       id="clipPath5507"><path
         d="M 524.305,483.541 H 754.83 V 219.056 H 524.305 Z"
         id="path5505"
         inkscape:connector-curvature="0" /></clipPath><clipPath
       clipPathUnits="userSpaceOnUse"
       id="clipPath5627"><path
         d="m 525.823,842.755 h 117.09 v -73.222 h -117.09 z"
         id="path5625"
         inkscape:connector-curvature="0" /></clipPath></defs><sodipodi:namedview
     pagecolor="#ffffff"
     bordercolor="#666666"
     borderopacity="1"
     objecttolerance="10"
     gridtolerance="10"
     guidetolerance="10"
     inkscape:pageopacity="0"
     inkscape:pageshadow="2"
     inkscape:window-width="1366"
     inkscape:window-height="705"
     id="namedview5477"
     showgrid="false"
     inkscape:zoom="1.2803902"
     inkscape:cx="416.92585"
     inkscape:cy="761.12395"
     inkscape:window-x="-8"
     inkscape:window-y="-8"
     inkscape:window-maximized="1"
     inkscape:current-layer="g5609" /><g
     id="g5483"
     inkscape:groupmode="layer"
     inkscape:label="Order Completed"
     transform="matrix(1.3333333,0,0,-1.3333333,0,1000)"><g
       id="g5485"
       transform="translate(-493.22035,-188.33395)"><g
         id="g5487"
         clip-path="url(#clipPath5491)"><g
           id="g5493"
           transform="translate(1005.5537,227.5674)"><path
             d="m 0,0 c 7.838,-2.426 10.683,-5.217 6.827,-8.427 -26.806,-22.321 -145.064,-20.37 -202.435,-19.731 -72.163,0.804 -147.261,1.01 -212.128,7.208 -27.145,2.594 -88.721,5.37 -99.112,13.13 -27.249,20.385 169.501,23.81 201.331,23.744 C -252.454,15.813 -44.769,13.857 0,0"
             style="fill:#e4e4e4;fill-opacity:1;fill-rule:nonzero;stroke:none"
             id="path5495"
             inkscape:connector-curvature="0" /></g><g
           id="g5497"
           transform="translate(672.2021,629.5659)"><path
             d="m 0,0 c 21.704,-8.589 46.163,-7.07 68.61,-2.467 19.852,4.07 48.869,11.688 54.826,34.238 0.426,1.617 -4.405,0.912 -4.818,-0.65 C 112.864,9.334 84.234,2.74 65.054,-0.788 44.892,-4.496 23.246,-5.418 3.866,2.251 2.498,2.793 -1.902,0.753 0,0"
             style="fill:#637aab;fill-opacity:1;fill-rule:nonzero;stroke:none"
             id="path5499"
             inkscape:connector-curvature="0" /></g><g
           id="g5501"><g
             id="g5503" /><g
             id="g5515"><g
               clip-path="url(#clipPath5507)"
               id="g5513"
               style="opacity:0.10000598"><g
                 transform="translate(754.5137,351.2686)"
                 id="g5511"><path
                   d="m 0,0 c 1.721,36.328 -3.891,82.658 -9.548,118.796 -1.282,8.193 -22.904,-4.633 -32.998,-5.392 -15.429,-1.16 -31.082,-2.573 -46.595,-2.152 -30.363,0.823 -118.032,21.019 -118.035,21.019 -3.251,-0.075 -12.93,-101.357 -13.792,-110.04 -2.797,-28.189 -6.221,-56.24 -7.343,-84.576 -0.603,-15.222 -6.537,-48.116 6.244,-61.045 1.355,-1.37 2.521,-2.709 4.639,-3.092 9.42,-1.707 17.45,13.887 20.686,19.401 20.842,35.51 27.409,76.276 46.556,112.636 4.293,8.151 9.274,16.382 17.284,21.78 7.76,5.229 20.302,10.983 29.373,5.683 19.553,-11.427 30.114,-38.001 38.946,-56.716 7.425,-15.734 13.523,-31.969 18.213,-48.523 4.414,-15.578 7.088,-31.481 15.471,-45.932 3.44,-5.931 7.583,-13.05 15.482,-14.018 9.619,-1.179 10.83,23.122 11.612,27.729 3.696,21.756 2.964,43.497 3.908,65.385 C 0.66,-26.104 -0.613,-12.949 0,0"
                   style="fill:#6b8695;fill-opacity:1;fill-rule:nonzero;stroke:none"
                   id="path5509"
                   inkscape:connector-curvature="0" /></g></g></g></g><g
           id="g5517"
           transform="translate(548.7471,438.4609)"><path
             d="m 0,0 c 24.951,-1.312 50.045,-0.918 75.015,-0.492 23.583,0.402 46.964,1.329 70.3,5.034 17.219,2.734 34.338,6.35 50.553,12.89 2.931,1.182 5.263,4.882 3.332,7.802 -2.121,3.21 -6.958,2.455 -9.891,1.272 C 164.828,16.633 136.803,13.221 110.604,11.708 87.469,10.372 64.204,10.337 41.038,10.358 28.992,10.369 16.919,10.377 4.888,11.01 1.388,11.193 -3.022,10.072 -4.521,6.474 -5.836,3.315 -3.301,0.174 0,0"
             style="fill:#edf1f3;fill-opacity:1;fill-rule:nonzero;stroke:none"
             id="path5519"
             inkscape:connector-curvature="0" /></g><g
           id="g5521"
           transform="translate(755.96,351.5713)"><path
             d="m 0,0 c -0.511,24.376 -0.32,48.776 -2.096,73.109 -0.914,12.53 -2.325,25.044 -4.675,37.391 -1.335,7.017 -1.473,13.22 -9.944,12.251 -7.636,-0.874 -14.74,-4.763 -22.056,-6.889 -4.768,-1.385 -9.733,-1.424 -14.659,-1.797 -7.119,-0.537 -14.243,-1.041 -21.38,-1.299 -16.516,-0.6 -32.429,1.243 -48.692,3.922 -27.181,4.478 -54.183,10.171 -81.046,16.253 -2.121,0.481 -4.367,1.346 -6.239,-0.291 -3.218,-2.813 -3.235,-10.436 -3.76,-14.253 -2.344,-17.01 -3.899,-34.209 -5.707,-51.281 -2.893,-27.313 -5.564,-54.655 -8.075,-82.007 -2.496,-27.193 -6.452,-54.713 -5.728,-82.069 0.245,-9.2 1.171,-19.416 7.368,-26.735 5.164,-6.1 12.175,-6.184 18.08,-0.931 6.861,6.103 11.465,16.193 15.45,24.23 5.331,10.749 9.643,21.963 14.148,33.072 10.681,26.334 22.056,53.264 38.54,76.568 6.165,8.714 15.618,22.08 27.372,23.103 7.336,0.638 14.372,-5.384 19.031,-10.344 6.648,-7.077 11.445,-15.755 15.61,-24.46 9.574,-20.007 18.628,-40.471 25.57,-61.544 3.893,-11.818 6.534,-23.947 10.146,-35.84 3.027,-9.966 7.249,-21.42 14.723,-29.011 4.56,-4.631 12.543,-7.723 18.203,-3.116 4.913,4 5.716,11.681 6.245,17.53 2.189,24.266 3.326,48.686 3.713,73.043 C 0.36,-27.597 0.29,-13.797 0,0 c -0.051,2.456 -4.926,1.668 -4.883,-0.404 0.558,-26.631 0.247,-53.277 -1.201,-79.876 -0.583,-10.711 -1.431,-21.402 -2.181,-32.101 -0.342,-4.89 -0.541,-17.732 -7.145,-18.405 -10.328,-1.053 -17.715,18.491 -20.31,25.607 -4.002,10.979 -6.187,22.509 -9.553,33.681 -6.432,21.343 -15.415,41.459 -24.437,61.781 -9.067,20.422 -28.683,58.996 -55.995,40.301 -10.347,-7.082 -17.927,-18.136 -24.504,-28.592 -8.11,-12.89 -14.948,-26.571 -21.264,-40.414 -4.973,-10.899 -9.54,-21.97 -14.021,-33.077 -4.536,-11.243 -9.022,-22.549 -14.754,-33.251 -3.176,-5.931 -12.534,-26.754 -21.05,-17.896 -7.374,7.67 -7.85,19.348 -7.925,29.379 -0.095,12.799 0.84,25.579 2.004,38.318 2.366,25.916 4.784,51.832 7.327,77.732 2.486,25.313 5.292,50.579 8.027,75.863 0.541,4.999 0.955,10.007 1.546,15 0.396,3.345 0.824,6.691 1.391,10.011 0.249,1.459 2.081,5.813 1.698,7.065 -0.269,0.877 -3.374,0.379 -2.572,-0.385 0.153,-0.146 0.712,-0.131 0.899,-0.205 1.193,-0.475 2.678,-0.608 3.928,-0.889 4.607,-1.034 9.219,-2.05 13.834,-3.051 14.193,-3.076 28.416,-6.022 42.683,-8.739 14.604,-2.782 29.275,-5.45 44.05,-7.158 19.379,-2.241 38.879,-0.577 58.254,0.957 7.617,0.603 14.46,3.66 21.626,6.087 2.3,0.78 7.429,3.204 9.839,2.005 1.549,-0.771 1.512,-2.501 1.854,-4.074 0.689,-3.174 1.31,-6.362 1.872,-9.56 4.215,-23.962 5.16,-48.368 5.584,-72.648 C -5.185,21.907 -5.116,10.75 -4.883,-0.404 -4.831,-2.86 0.044,-2.072 0,0"
             style="fill:#637aab;fill-opacity:1;fill-rule:nonzero;stroke:none"
             id="path5523"
             inkscape:connector-curvature="0" /></g><g
           id="g5525"
           transform="translate(545.7129,437.2373)"><path
             d="m 0,0 c 48.656,-1.561 97.917,-4.025 146.284,2.855 16.716,2.378 33.469,5.886 49.02,12.622 3.063,1.326 0.304,3.324 -1.999,2.326 C 167.352,6.563 137.995,4.092 110.063,2.209 86.687,0.633 63.039,1.521 39.639,2.022 27.023,2.292 14.409,2.641 1.797,3.045 -0.238,3.11 -3.262,0.105 0,0"
             style="fill:#637aab;fill-opacity:1;fill-rule:nonzero;stroke:none"
             id="path5527"
             inkscape:connector-curvature="0" /></g><g
           id="g5529"
           transform="translate(583.478,408.7939)"><path
             d="m 0,0 c 0.054,-9.842 -3.436,-18.91 -10.101,-26.154 -1.07,-1.163 3.552,-0.65 4.398,0.27 C 1.224,-18.354 4.885,-8.939 4.83,1.294 4.825,2.221 -0.008,1.484 0,0"
             style="fill:#637aab;fill-opacity:1;fill-rule:nonzero;stroke:none"
             id="path5531"
             inkscape:connector-curvature="0" /></g><g
           id="g5533"
           transform="translate(541.1489,448.9609)"><path
             d="M 0,0 C -3.42,23.881 0.477,46.691 0.681,70.338 0.794,83.41 0.376,96.584 1.5,109.609 c 0.558,6.469 1.251,12.927 2.105,19.364 0.708,5.342 3.221,12.146 3.004,17.395 -0.207,5.023 -4.554,8.484 -7.521,11.926 3.464,5.015 8.659,8.224 12.467,12.85 3.451,4.193 3.516,10.27 5.398,15.33 3.824,10.281 8.614,20.38 15.235,29.177 11.724,15.575 28.872,24.064 48.437,20.213 1.91,-0.375 3.799,-0.85 5.665,-1.402 53.646,-15.863 103.178,-148.46 118.199,-216.066 0,0 -51.162,-19.87 -104.01,-19.816 C 74.993,-1.394 0,0 0,0"
             style="fill:#edf1f3;fill-opacity:1;fill-rule:nonzero;stroke:none"
             id="path5535"
             inkscape:connector-curvature="0" /></g><g
           id="g5537"
           transform="translate(642.9756,740.8628)"><path
             d="M 0,0 C -8.783,45.507 -35.939,78.531 -60.654,73.761 -85.37,68.99 -98.285,28.232 -89.501,-17.275 c 0.203,-1.054 1.215,-6.296 1.574,-8.156 4.87,-25.231 10.409,-42.398 16.524,-53.909 12.57,-23.663 44.799,-28.332 44.799,-28.332 0,0 28.936,16.269 32.514,40.281 1.96,13.144 0.928,31.963 -4.336,59.235 C 1.227,-6.354 0.214,-1.109 0,0"
             style="fill:#edf1f3;fill-opacity:1;fill-rule:nonzero;stroke:none"
             id="path5539"
             inkscape:connector-curvature="0" /></g><g
           id="g5541"
           transform="translate(554.2788,590.5469)"><path
             d="m 0,0 c 0.275,2.905 -2.059,1.162 -6.571,5.38 -2.992,2.796 -8.772,12.479 -8.772,12.479 6.957,5.752 15.671,11.711 17.633,20.863 0.097,0.457 0.24,0.953 0.63,1.211 C 3.613,40.392 4.503,39.81 5.135,39.27 15.532,30.378 28.513,25.119 41.657,21.812 54.663,18.54 69.471,15.52 82.59,19.708 c 1.471,0.47 3.97,12.229 5.415,12.724 5.494,1.877 14.887,-7.872 21.577,-5.866 9.625,2.886 8.662,28.043 8.662,28.043 30.235,-41.933 54.483,-111.983 73.115,-177.799 0,0 -47.479,-18.231 -104.01,-19.816 -25.476,-0.714 -89.855,-0.073 -89.855,-0.073"
             style="fill:#ffffff;fill-opacity:1;fill-rule:nonzero;stroke:none"
             id="path5543"
             inkscape:connector-curvature="0" /></g><g
           id="g5545"
           transform="translate(666.6123,655.041)"><path
             d="M 0,0 -16.484,14.468 -32.833,-8.002 -99.955,-2.9 c -1.388,-2.808 -3.234,-5.662 -4.257,-8.609 -1.061,-3.061 19.027,-15.197 28.16,-19.476 8.369,-3.922 31.514,-8.712 40.599,-10.33 3.822,-0.681 7.688,21.043 7.688,21.043 9.123,-5.678 22.288,-12.832 22.337,-12.853 C -5.442,-33.119 7.223,-17.158 0,0"
             style="fill:#ffffff;fill-opacity:1;fill-rule:nonzero;stroke:none"
             id="path5547"
             inkscape:connector-curvature="0" /></g><g
           id="g5549"
           transform="translate(644.5498,732.7065)"><path
             d="m 0,0 c -0.348,1.803 -1.36,7.047 -1.574,8.156 -8.783,45.508 -35.94,78.532 -60.655,73.761 -10.706,-2.066 -15.721,-9.207 -17.173,-19.599 -3.771,-26.987 -4.298,-56.03 -0.35,-83.029 1.485,-10.163 4.131,-21.995 5.35,-28.247 1.314,-6.735 4.594,-22.131 4.594,-22.131 0,0 -3.125,-0.391 -3.099,-0.858 0.014,-0.257 0.062,-0.521 0.129,-0.789 -3.693,-2.205 -6.521,-4.958 -5.115,-7.83 2.15,-4.391 11.994,-16.251 18.23,-19.558 3.277,-1.738 6.745,-3.064 10.32,-4.033 5.2,-1.409 10.627,-2.061 16.022,-2.12 8.904,-0.099 16.376,2.435 24.008,7.023 7.826,4.703 19.43,23.101 18.317,33.302 -0.34,3.116 -2.163,5.06 -4.749,6.272 0.024,0.15 0.059,0.296 0.081,0.446 C 6.296,-46.09 5.264,-27.272 0,0"
             style="fill:#ffffff;fill-opacity:1;fill-rule:nonzero;stroke:none"
             id="path5551"
             inkscape:connector-curvature="0" /></g><g
           id="g5553"
           transform="translate(561.2314,638.1655)"><path
             d="m 0,0 c 14.4,-11.105 31.712,-17.957 49.255,-22.45 6.833,-1.75 14.199,-3.496 21.32,-3.231 1.178,0.043 2.335,0.781 2.67,1.917 2.113,7.17 4.228,14.339 6.341,21.509 -1.437,-0.522 -2.874,-1.044 -4.311,-1.566 7.599,-4.601 15.143,-9.311 22.81,-13.798 1.127,-0.66 3.061,-0.391 3.88,0.691 7.087,9.362 8.889,21.618 4.635,32.561 -0.824,2.118 -5.624,0.751 -4.829,-1.294 3.865,-9.942 2.686,-21.304 -3.83,-29.911 1.293,0.231 2.586,0.461 3.879,0.691 -7.666,4.487 -15.21,9.197 -22.809,13.798 -1.482,0.897 -3.819,0.104 -4.311,-1.566 -2.113,-7.17 -4.227,-14.339 -6.341,-21.509 0.89,0.639 1.781,1.279 2.67,1.918 -5.85,-0.218 -13.942,1.637 -20.154,3.286 C 34.057,-14.492 17.571,-7.932 3.736,2.738 2.092,4.005 -2.164,1.668 0,0"
             style="fill:#637aab;fill-opacity:1;fill-rule:nonzero;stroke:none"
             id="path5555"
             inkscape:connector-curvature="0" /></g><g
           id="g5557"
           transform="translate(643.6621,603.4858)"><path
             d="m 0,0 c -2.106,-15.375 -4.27,-30.744 -6.276,-46.133 -2.374,-18.207 -7.977,-34.743 -17.56,-48.261 1.349,-5.373 12.391,-23.201 12.247,-28.898 3.776,2.934 18.492,15.819 22.315,18.97 7.657,6.313 6.386,54.556 5.022,68.798 -0.685,7.163 -2.864,39.632 -9.481,40.155 L 3.84,4.824 C 1.947,4.973 0.246,2.98 0.04,0.371 0.03,0.247 0.017,0.123 0,0"
             style="fill:#dedede;fill-opacity:1;fill-rule:nonzero;stroke:none"
             id="path5559"
             inkscape:connector-curvature="0" /></g><g
           id="g5561"
           transform="translate(644.2031,605.2041)"><path
             d="m 0,0 c -0.816,-15.496 -1.69,-30.993 -2.406,-46.497 -0.848,-18.341 -5.052,-35.286 -13.475,-49.557 1.792,-5.241 14.283,-22.087 14.615,-27.776 3.518,3.24 17.109,17.308 20.655,20.766 7.104,6.929 1.814,54.898 -0.733,68.977 -1.28,7.081 -6.16,39.255 -12.797,39.225 L 3.424,5.127 C 1.526,5.118 -0.003,2.99 0.009,0.373 0.01,0.249 0.007,0.124 0,0"
             style="fill:#00a3e2;fill-opacity:1;fill-rule:nonzero;stroke:none"
             id="path5563"
             inkscape:connector-curvature="0" /></g><g
           id="g5565"
           transform="translate(642.3643,605.0835)"><path
             d="m 0,0 c -0.751,-14.207 -1.546,-28.411 -2.225,-42.621 -0.627,-13.127 -2.167,-26.045 -6.695,-38.469 -0.926,-2.542 -1.963,-5.045 -3.112,-7.494 -0.815,-1.736 -3.864,-5.583 -3.849,-7.469 0.018,-2.327 2.604,-5.491 3.729,-7.364 3.678,-6.128 10.063,-13.493 10.915,-20.778 0.149,-1.285 2.389,-0.993 3.027,-0.397 4.1,3.829 7.979,7.905 11.909,11.906 3.211,3.269 7.689,6.607 10.083,10.559 2.027,3.344 2.3,7.954 2.58,11.734 0.477,6.439 0.288,12.936 -0.043,19.378 -1.131,22.037 -3.486,45.859 -10.411,66.943 C 14.811,-0.731 13.253,4.974 9.519,6.378 4.746,8.173 0.119,4.989 0,0 c -0.048,-1.956 3.637,-1.481 3.679,0.241 0.083,3.448 2.553,4.561 4.675,2.921 1.381,-1.067 2.213,-3.588 2.818,-5.095 1.876,-4.675 3.048,-9.655 4.131,-14.563 1.727,-7.827 3.153,-15.771 4.298,-23.707 1.569,-10.88 2.636,-21.868 3.127,-32.851 0.239,-5.365 0.35,-10.754 0.047,-16.119 -0.208,-3.666 -0.29,-8.201 -1.998,-11.553 -1.846,-3.623 -6.05,-6.64 -8.867,-9.508 -4.148,-4.223 -8.226,-8.55 -12.553,-12.592 1.009,-0.132 2.018,-0.265 3.028,-0.398 -0.805,6.886 -6.564,13.787 -10.061,19.513 -1.755,2.871 -5.063,6.432 -3.435,9.629 2.718,5.341 5.172,10.667 6.994,16.394 3.659,11.496 4.998,23.306 5.571,35.309 0.679,14.21 1.474,28.414 2.225,42.62 C 3.781,2.189 0.091,1.725 0,0"
             style="fill:#637aab;fill-opacity:1;fill-rule:nonzero;stroke:none"
             id="path5567"
             inkscape:connector-curvature="0" /></g><g
           id="g5569"
           transform="translate(641.8535,624.6904)"><path
             d="m 0,0 c 0.671,1.322 1.728,2.044 3.621,0.98 2.706,-1.521 5.003,-4.69 7.047,-6.971 1.693,-1.89 2.579,-3.267 -0.313,-4.573 -2.551,-1.152 -5.808,-1.487 -8.529,-2.183 -4.35,-1.113 -3.551,6.408 -3.035,8.561 0.311,1.3 0.602,2.989 1.209,4.186"
             style="fill:#ace0f6;fill-opacity:1;fill-rule:nonzero;stroke:none"
             id="path5571"
             inkscape:connector-curvature="0" /></g><g
           id="g5573"
           transform="translate(643.5303,624.6895)"><path
             d="m 0,0 c 0.444,0.748 0.845,-0.038 1.577,-0.594 0.667,-0.507 1.276,-1.093 1.861,-1.69 1.185,-1.207 2.244,-2.53 3.35,-3.808 1.296,-1.497 3.146,-2.904 0.408,-4.12 -1.698,-0.755 -3.769,-0.984 -5.583,-1.318 -1.63,-0.301 -2.282,-0.286 -2.801,1.362 -0.328,1.04 -0.331,2.248 -0.281,3.323 0.109,2.378 0.67,4.921 1.598,7.093 0.436,1.021 -3.129,0.634 -3.611,-0.494 -1.287,-3.009 -2.839,-9.031 -0.807,-12.103 0.851,-1.288 2.179,-1.566 3.655,-1.423 2.855,0.274 6.113,1.109 8.814,2.073 1.52,0.543 4.266,1.549 4.182,3.57 C 12.275,-6.018 9.282,-3.633 7.98,-2.17 5.268,0.879 -0.262,5.209 -3.353,0.002 -4.168,-1.372 -0.569,-0.958 0,0"
             style="fill:#637aab;fill-opacity:1;fill-rule:nonzero;stroke:none"
             id="path5575"
             inkscape:connector-curvature="0" /></g><g
           id="g5577"
           transform="translate(563.4976,587.0977)"><path
             d="m 0,0 c -4.715,1.626 -9.644,4.938 -12.903,8.747 -1.793,2.095 -3.195,4.578 -4.837,6.799 -0.973,1.316 -1.889,2.704 -2.905,3.986 -3.116,3.93 -1.688,0.885 -1.083,2.437 0.572,1.465 3.178,3.245 4.245,4.26 1.531,1.457 3.093,2.895 4.827,4.108 1.78,1.246 4.419,2.25 5.609,4.088 1.026,1.584 1.42,4.168 2.039,5.932 1.484,4.229 3.018,8.44 4.633,12.621 2.938,7.61 6.024,14.768 10.679,21.468 0.162,0.181 0.224,0.39 0.186,0.626 -10.021,19.149 -14.131,41.026 -18.098,62.065 -4.351,23.074 -4.835,49.582 6.118,71.032 4.04,7.91 10.549,16.064 19.654,18.091 8.737,1.944 17.607,-2.183 24.363,-7.437 17.986,-13.986 27.927,-37.415 33.084,-58.976 5.696,-23.815 10.753,-50.315 7.273,-74.808 -0.239,-1.679 4.598,-0.805 4.809,0.682 2.068,14.559 0.655,29.551 -1.425,44.023 -2.395,16.669 -5.39,33.743 -11.399,49.527 -8.142,21.383 -26.537,53.031 -53.821,49.741 -27.779,-3.35 -35.507,-38.19 -36.18,-61.057 -0.493,-16.781 2.623,-33.256 6.174,-49.58 1.915,-8.804 4.12,-17.564 6.958,-26.121 1.07,-3.227 2.229,-6.427 3.52,-9.574 0.578,-1.409 1.182,-2.807 1.817,-4.191 0.36,-0.783 2.428,-3.695 2.394,-4.251 C 5.636,72.664 2.852,70.177 1.987,68.661 0.365,65.82 -0.918,62.757 -2.189,59.749 -5.033,53.016 -7.554,46.144 -9.968,39.247 c -0.561,-1.603 -0.922,-3.651 -1.763,-5.132 -0.05,-0.088 -0.056,-0.257 -0.117,-0.349 0.718,1.077 -0.536,-0.128 -0.823,-0.307 -0.944,-0.588 -1.857,-1.259 -2.777,-1.877 -4.24,-2.85 -7.852,-6.575 -11.343,-10.295 -0.162,-0.181 -0.224,-0.39 -0.186,-0.626 C -21.513,11.358 -14.53,1.479 -3.882,-2.192 -2.549,-2.651 1.824,-0.629 0,0"
             style="fill:#637aab;fill-opacity:1;fill-rule:nonzero;stroke:none"
             id="path5579"
             inkscape:connector-curvature="0" /></g><g
           id="g5581"
           transform="translate(545.2275,592.5137)"><path
             d="m 0,0 c -4.929,-28.38 -6.187,-57.449 -6.875,-86.198 -0.459,-19.197 -1.27,-38.834 0.382,-58.001 0.053,-0.615 1.052,-0.841 1.509,-0.851 25.285,-0.552 50.574,-1.037 75.864,-1.319 36.278,-0.404 72.562,0.984 107.574,11.457 7.746,2.317 15.752,4.854 22.948,8.619 0.612,0.32 1.639,0.92 1.423,1.782 -7.698,30.681 -17.218,60.948 -28.739,90.411 -10.94,27.977 -23.603,55.785 -40.484,80.731 -7.81,11.54 -16.652,22.577 -27.465,31.449 -1.298,1.065 -4.713,0.376 -4.647,-1.632 0.269,-8.161 -2.056,-20.734 -11.974,-23.297 -20.655,-5.337 -40.87,4.294 -59.002,13.148 -1.559,0.762 -5.939,-1.443 -3.804,-2.486 19.956,-9.744 43.842,-20.714 66.342,-12.562 10.546,3.82 13.601,16.351 13.267,26.492 -1.548,-0.544 -3.097,-1.088 -4.646,-1.632 20.373,-16.716 34.517,-40.665 46.359,-63.824 14.46,-28.281 25.914,-58.104 35.68,-88.3 5.314,-16.432 10.08,-33.04 14.283,-49.792 0.475,0.595 0.948,1.189 1.423,1.783 -5.614,-2.937 -11.762,-5.038 -17.773,-6.965 -16.999,-5.451 -34.653,-8.764 -52.386,-10.643 -33.802,-3.582 -68.274,-1.663 -102.196,-1.031 -10.079,0.187 -20.158,0.386 -30.236,0.605 0.503,-0.283 1.006,-0.566 1.509,-0.849 -1.668,19.353 -0.815,39.205 -0.328,58.586 0.712,28.299 1.991,56.91 6.842,84.846 C 5.207,2.577 0.315,1.818 0,0"
             style="fill:#637aab;fill-opacity:1;fill-rule:nonzero;stroke:none"
             id="path5583"
             inkscape:connector-curvature="0" /></g><g
           id="g5585"
           transform="translate(601.0146,683.2993)"><path
             d="M 0,0 C 8.416,-4.015 32.122,-8.355 33.056,6.699 33.161,8.401 28.339,7.404 28.252,5.998 27.53,-5.636 10.529,-1.011 3.892,2.156 2.645,2.75 -1.797,0.857 0,0"
             style="fill:#637aab;fill-opacity:1;fill-rule:nonzero;stroke:none"
             id="path5587"
             inkscape:connector-curvature="0" /></g><g
           id="g5589"
           transform="translate(1063.6475,654.8794)"><path
             d="m 0,0 -262.233,58.274 c -3.464,0.77 -5.648,4.202 -4.878,7.666 l 44.081,198.366 c 0.77,3.464 4.202,5.648 7.666,4.878 L 46.869,210.91 c 3.464,-0.77 5.648,-4.202 4.878,-7.666 L 7.666,4.878 C 6.896,1.414 3.464,-0.77 0,0"
             style="fill:#17d474;fill-opacity:1;fill-rule:nonzero;stroke:none"
             id="path5591"
             inkscape:connector-curvature="0" /></g><g
           id="g5593"
           transform="translate(1066.6846,669.7549)"><path
             d="m 0,0 -209.614,46.581 c -23.163,5.148 -37.768,28.097 -32.62,51.26 l 28.015,126.069 c 3.382,15.217 18.459,24.812 33.676,21.43 L 43.458,195.562 c 3.464,-0.77 5.647,-4.202 4.878,-7.666 L 7.665,4.878 C 6.896,1.414 3.464,-0.77 0,0"
             style="fill:#65e393;fill-opacity:1;fill-rule:nonzero;stroke:none"
             id="path5595"
             inkscape:connector-curvature="0" /></g><g
           id="g5597"
           transform="translate(1065.625,655.8403)"><path
             d="m 0,0 c -24.317,5.404 -48.636,10.808 -72.953,16.212 -43.36,9.635 -86.719,19.271 -130.078,28.906 -15.447,3.433 -30.893,6.865 -46.34,10.298 -6.177,1.373 -18.65,1.706 -17.179,10.666 1.842,11.219 4.973,22.376 7.438,33.471 l 13.907,62.582 c 7.414,33.363 14.29,66.899 22.253,100.136 0.701,2.926 2.224,4.933 5.241,4.634 3.657,-0.363 7.447,-1.655 11.03,-2.451 15.244,-3.388 30.49,-6.776 45.735,-10.163 43.488,-9.665 86.975,-19.329 130.464,-28.993 17.282,-3.84 34.564,-7.681 51.846,-11.521 7.062,-1.569 14.658,-2.542 21.546,-4.788 6.241,-2.036 4.37,-7.588 3.355,-12.156 C 44.969,191 43.672,185.167 42.376,179.334 38.064,159.932 33.753,140.53 29.441,121.128 21.18,83.951 12.918,46.774 4.656,9.597 4.132,7.235 3.433,-0.397 -0.421,0.06 -1.52,0.191 -5.96,-1.694 -3.533,-1.982 c 6.508,-0.773 10.83,2.818 12.15,8.758 1.123,5.053 2.246,10.106 3.369,15.159 4.287,19.294 8.575,38.587 12.863,57.881 8.609,38.742 17.218,77.483 25.828,116.225 0.57,2.567 1.67,5.507 1.661,8.182 -0.016,5.381 -4.727,6.522 -8.842,7.437 -12.109,2.691 -24.219,5.381 -36.327,8.072 -43.628,9.695 -87.255,19.39 -130.883,29.085 -30.081,6.685 -60.098,13.9 -90.29,20.065 -5.289,1.08 -11.563,-0.194 -13.394,-5.974 -0.86,-2.714 -1.26,-5.67 -1.877,-8.445 l -11.183,-50.325 c -9.203,-41.413 -18.406,-82.826 -27.609,-124.24 -1.019,-4.582 -2.104,-9.154 -3.056,-13.751 -0.943,-4.555 0.311,-8.511 5.321,-9.88 8.904,-2.434 18.129,-4.029 27.136,-6.031 41.982,-9.329 83.964,-18.658 125.946,-27.988 L -9.545,-0.68 c 1.863,-0.414 3.727,-0.828 5.591,-1.242 C -2.796,-2.18 1.414,-0.314 0,0"
             style="fill:#637aab;fill-opacity:1;fill-rule:nonzero;stroke:none"
             id="path5599"
             inkscape:connector-curvature="0" /></g><g
           id="g5601"
           transform="translate(679.5615,229.7158)"><path
             d="m 0,0 147.353,693.348 c 0.841,3.962 4.735,6.491 8.697,5.649 3.962,-0.842 6.49,-4.736 5.648,-8.698 L 14.347,-3.049 C 13.505,-7.011 9.61,-9.54 5.648,-8.698 1.687,-7.855 -0.842,-3.962 0,0"
             style="fill:#ffffff;fill-opacity:1;fill-rule:nonzero;stroke:none"
             id="path5603"
             inkscape:connector-curvature="0" /></g><g
           id="g5605"
           transform="translate(681.9814,229.998)"><path
             d="m 0,0 c 1.328,6.25 2.657,12.501 3.985,18.751 3.613,16.999 7.226,33.998 10.838,50.996 5.339,25.12 10.677,50.24 16.016,75.36 l 19.617,92.309 c 7.117,33.487 14.234,66.975 21.351,100.462 L 93.302,439.02 c 6.654,31.313 13.309,62.625 19.964,93.938 5.586,26.284 11.172,52.568 16.757,78.852 3.959,18.628 7.918,37.256 11.877,55.884 1.764,8.299 3.108,16.837 5.32,25.033 0.051,0.185 0.065,0.382 0.121,0.566 2.198,7.365 10.309,2.59 9.517,-3.56 -0.056,-0.442 -0.2,-0.877 -0.279,-1.316 -0.581,-3.208 -1.359,-6.393 -2.037,-9.582 -3.126,-14.711 -6.253,-29.422 -9.379,-44.134 l -14.93,-70.249 C 123.956,534.913 117.678,505.375 111.4,475.836 104.38,442.803 97.359,409.769 90.339,376.735 83.135,342.835 75.93,308.934 68.726,275.032 61.895,242.892 55.063,210.751 48.233,178.609 42.335,150.856 36.437,123.103 30.538,95.35 26.114,74.532 21.69,53.716 17.267,32.899 14.919,21.855 12.572,10.812 10.226,-0.231 10.031,-1.147 9.883,-2.088 9.639,-2.992 9.59,-3.175 9.574,-3.367 9.521,-3.548 7.266,-11.094 -0.729,-6.049 0,0 c 0.243,2.011 -4.631,1.165 -4.84,-0.565 -1.556,-12.902 16.773,-12.517 19.381,-1.566 0.726,3.043 1.304,6.13 1.953,9.19 3.144,14.789 6.286,29.579 9.43,44.368 5.098,23.989 10.196,47.978 15.295,71.968 6.422,30.216 12.843,60.432 19.264,90.648 7.208,33.917 14.416,67.834 21.624,101.752 7.369,34.668 14.737,69.336 22.104,104.005 6.929,32.598 13.856,65.198 20.784,97.797 5.889,27.709 11.777,55.418 17.667,83.128 4.234,19.927 8.47,39.855 12.705,59.782 2.023,9.518 4.229,19.017 6.071,28.571 0.165,0.849 0.391,1.66 0.419,2.536 0.31,9.697 -12.922,11.135 -17.819,4.451 -1.608,-2.195 -1.918,-5.125 -2.472,-7.731 -2.577,-12.128 -5.154,-24.256 -7.732,-36.384 -4.678,-22.013 -9.356,-44.027 -14.035,-66.04 C 113.62,556.833 107.44,527.754 101.261,498.677 94.213,465.516 87.165,432.355 80.118,399.195 72.734,364.449 65.35,329.704 57.966,294.959 50.876,261.598 43.786,228.236 36.695,194.875 30.499,165.718 24.303,136.562 18.106,107.404 13.402,85.272 8.699,63.141 3.996,41.01 1.391,28.753 -1.214,16.497 -3.818,4.241 -4.159,2.639 -4.499,1.037 -4.84,-0.565 -5.245,-2.475 -0.368,-1.733 0,0"
             style="fill:#637aab;fill-opacity:1;fill-rule:nonzero;stroke:none"
             id="path5607"
             inkscape:connector-curvature="0" /></g><g
           id="g5609" style="clip-path: url(#clipPath3);"
           transform="translate(891.9336,801.5718)">

            <path
             d="m 0,0 c 11.916,-18.386 23.83,-36.771 35.745,-55.157 2.767,-4.268 12.08,-1.742 15.079,0.485 31.821,23.63 63.641,47.259 95.461,70.889 4.526,3.361 9.051,6.721 13.576,10.082 2.951,2.191 5.31,5.938 1.431,8.522 -3.638,2.423 -10.504,0.86 -13.75,-1.55 L 52.081,-37.618 c -4.525,-3.361 -9.051,-6.721 -13.576,-10.082 5.026,0.162 10.052,0.324 15.078,0.485 L 17.838,7.942 C 13.861,14.078 -4.812,7.427 0,0"
             style="fill:#ffffff;fill-opacity:1;fill-rule:nonzero;stroke:none"
             id="path5611"
             inkscape:connector-curvature="0"
             inkscape:label="tickmark" class="tickmark" /><rect
             style="opacity:1;fill:#65e393;fill-opacity:1;stroke:none;stroke-width:0.075;stroke-miterlimit:4;stroke-dasharray:none;stroke-opacity:1;"
             id="rect6184"
             width="168.69858"
             height="98.993279"
             x="-5.0832148"
             y="-39.883389"
             transform="scale(1,-1)"
             inkscape:label="tickmask" class="tickmask" />

</g><g
           id="g5613"
           transform="translate(795.6377,661.3374)"><path
             d="m 0,0 c 1.641,8.146 -2.044,18.86 -12.024,17.021 -0.749,-0.139 -2.683,-0.566 -2.761,-1.581 -0.078,-1.011 1.354,-1.059 2.056,-0.929 7.55,1.391 8.931,-10.102 7.912,-15.162 C -5.159,-2.348 -0.315,-1.562 0,0"
             style="fill:#637aab;fill-opacity:1;fill-rule:nonzero;stroke:none"
             id="path5615"
             inkscape:connector-curvature="0" /></g><g
           id="g5617"
           transform="translate(547.52,591.8008)"><path
             d="m 0,0 c -5.608,-15.526 5.375,-32.655 16.434,-42.688 12.941,-11.737 29.103,-19.215 45.955,-23.395 37.748,-9.361 79.638,-3.717 115.153,11.269 5.078,2.143 10.066,4.526 14.885,7.202 5.738,3.185 11.277,7.066 17.537,9.181 3.96,1.338 8.925,0.391 12.563,2.697 3.148,1.995 3.837,5.431 1.534,8.294 -0.973,1.211 -5.618,-0.452 -4.497,-1.845 4.467,-5.554 -4.987,-5.401 -7.917,-6.154 -3.912,-1.006 -7.632,-2.758 -11.195,-4.629 -8.555,-4.492 -16.632,-9.538 -25.59,-13.269 C 156.505,-60.98 136.896,-65.638 117.085,-67.258 85.1,-69.874 49.911,-64.667 24.383,-43.813 12.178,-33.843 -1.243,-16.126 4.817,0.65 5.352,2.13 0.557,1.542 0,0"
             style="fill:#637aab;fill-opacity:1;fill-rule:nonzero;stroke:none"
             id="path5619"
             inkscape:connector-curvature="0" /></g><g
           id="g5621"><g
             id="g5623" /><g
             id="g5635"><g
               clip-path="url(#clipPath5627)"
               id="g5633"
               style="opacity:0.5"><g
                 transform="translate(641.752,829.9819)"
                 id="g5631"><path
                   d="m 0,0 c 6.375,-15.347 -14.148,-38.459 -45.841,-51.625 -31.693,-13.165 -62.553,-11.397 -68.928,3.949 -6.374,15.346 14.149,38.46 45.842,51.625 C -37.234,17.114 -6.375,15.346 0,0"
                   style="fill:#07a1de;fill-opacity:1;fill-rule:nonzero;stroke:none"
                   id="path5629"
                   inkscape:connector-curvature="0" /></g></g></g></g></g></g></g></svg>


